<svg xmlns="http://www.w3.org/2000/svg" version="1.1" xmlns:xlink="http://www.w3.org/1999/xlink" xmlns:svgjs="http://svgjs.dev/svgjs" width="512px" height="512px"><svg width="512px" height="512px" viewBox="0 0 512 512" version="1.1" xmlns="http://www.w3.org/2000/svg" xmlns:xlink="http://www.w3.org/1999/xlink">
    <title>Artboard</title>
    <g id="SvgjsG1013" stroke="none" stroke-width="1" fill="none" fill-rule="evenodd">
        <g id="SvgjsG1012" transform="translate(47, 51)" fill-rule="nonzero">
            <g id="SvgjsG1011">
                <path d="M260.530946,193.183973 L418,193.183973 C412.011726,89.2151213 327.160751,5.99377867 221.155992,0 L221.155992,154.455455 C221.155992,175.779071 238.79269,193.069319 260.530946,193.069319" id="SvgjsPath1010" fill="#FAC113"></path>
                <path d="M196.833754,154.455455 L196.833754,0 C90.8392494,5.99377867 5.98827425,89.2151213 0,193.069319 L157.469054,193.069319 C179.20731,193.069319 196.833754,175.779071 196.833754,154.455455 Z" id="SvgjsPath1009" fill="#00569C"></path>
                <path d="M157.469054,216.930681 L0,216.930681 C6.11132099,320.89943 90.9520422,404.120906 196.833754,410 L196.833754,255.544545 C196.833754,234.220929 179.20731,216.930681 157.469054,216.930681 Z" id="SvgjsPath1008" fill="#00569C"></path>
                <path d="M418,216.930681 L260.530946,216.930681 C238.79269,216.930681 221.155992,234.220929 221.155992,255.544545 L221.155992,410 C327.160751,404.006252 412.011726,320.784776 418,216.930681 Z" id="SvgjsPath1007" fill="#00569C"></path>
            </g>
        </g>
    </g>
</svg><style>@media (prefers-color-scheme: light) { :root { filter: none; } }
@media (prefers-color-scheme: dark) { :root { filter: none; } }
</style></svg>