<svg xmlns="http://www.w3.org/2000/svg" width="1236" height="300" viewBox="0 0 1236 300" version="1.1">
	<path d="M 138.639 30.694 C 138.288 31.046, 138 39.089, 138 48.568 L 138 65.804 131.998 66.500 C 128.697 66.883, 125.746 67.603, 125.439 68.098 C 125.133 68.594, 122.916 69, 120.512 69 C 117.962 69, 115.518 69.624, 114.643 70.500 C 113.818 71.325, 112.041 72, 110.694 72 C 109.347 72, 107.685 72.675, 107 73.500 C 106.315 74.325, 105.092 75, 104.282 75 C 102.387 75, 96.739 78.126, 95.700 79.750 C 95.260 80.438, 94.263 81, 93.485 81 C 92.706 81, 90.688 82.350, 89 84 C 87.312 85.650, 85.497 87, 84.966 87 C 84.434 87, 84 87.675, 84 88.500 C 84 89.325, 83.325 90, 82.500 90 C 81.675 90, 81 90.675, 81 91.500 C 81 92.325, 80.550 93, 80 93 C 79.022 93, 75 96.570, 75 97.438 C 75 97.679, 73.650 99.355, 72 101.161 C 70.350 102.968, 69 105.197, 69 106.116 C 69 107.034, 68.325 108.045, 67.500 108.362 C 66.675 108.678, 66 109.865, 66 111 C 66 112.135, 65.325 113.322, 64.500 113.638 C 63.675 113.955, 62.986 115.178, 62.968 116.357 C 62.951 117.536, 62.276 119.374, 61.468 120.441 C 60.661 121.509, 60 123.556, 60 124.991 C 60 126.426, 59.505 128.095, 58.900 128.700 C 58.295 129.305, 57.390 133.469, 56.888 137.953 C 56.386 142.438, 55.255 147.208, 54.373 148.554 C 52.796 150.960, 52.516 151.003, 37.135 151.202 L 21.500 151.405 38.170 151.952 C 47.339 152.254, 55.110 152.771, 55.440 153.103 C 55.770 153.435, 56.309 157.485, 56.638 162.103 C 56.968 166.721, 57.859 171.497, 58.618 172.715 C 59.378 173.933, 60 175.970, 60 177.242 C 60 178.514, 60.608 180.443, 61.351 181.527 C 62.094 182.612, 63.002 184.737, 63.370 186.250 C 63.737 187.762, 64.480 189, 65.019 189 C 65.559 189, 66 189.845, 66 190.878 C 66 191.910, 66.675 193.315, 67.500 194 C 68.325 194.685, 69 195.817, 69 196.515 C 69 197.214, 69.675 198.045, 70.500 198.362 C 71.325 198.678, 72 199.565, 72 200.333 C 72 201.772, 85.028 216, 86.346 216 C 87.083 216, 88.589 217.105, 91.884 220.062 C 94.784 222.666, 112.342 230.998, 115.008 231.035 C 116.378 231.055, 118.625 231.714, 120 232.500 C 121.384 233.291, 125.204 233.945, 128.559 233.965 C 138.051 234.020, 137.930 233.775, 138.236 253.500 C 138.588 276.146, 140.336 275.679, 141 252.762 L 141.500 235.517 144.500 234.877 C 146.150 234.525, 150.200 234.181, 153.500 234.112 C 156.800 234.044, 160.789 233.315, 162.364 232.494 C 163.940 231.672, 166.164 231, 167.308 231 C 171.077 231, 184.700 223.825, 194.837 216.500 C 198.586 213.791, 210 201.665, 210 200.391 C 210 199.592, 210.675 198.678, 211.500 198.362 C 212.325 198.045, 213 197.352, 213 196.822 C 213 196.291, 213.675 195.182, 214.500 194.357 C 215.325 193.532, 216 192.037, 216 191.036 C 216 190.034, 216.675 188.955, 217.500 188.638 C 218.325 188.322, 219 187.117, 219 185.960 C 219 184.803, 219.675 183.182, 220.500 182.357 C 221.325 181.532, 222 179.352, 222 177.512 C 222 175.672, 222.528 173.991, 223.172 173.776 C 223.846 173.551, 224.518 170.645, 224.752 166.943 C 224.976 163.399, 225.860 158.588, 226.715 156.250 L 228.272 152 712.886 151.753 L 1197.500 151.506 712 150.771 C 193.432 149.986, 143.074 149.717, 141.811 147.728 C 141.382 147.053, 141.024 120.539, 141.015 88.809 C 141.007 57.079, 140.613 30.879, 140.139 30.586 C 139.666 30.294, 138.991 30.342, 138.639 30.694 M 506.242 51.712 C 502.964 52.023, 501.180 52.943, 498.492 55.711 C 496.571 57.689, 495 59.927, 495 60.685 C 495 61.443, 494.325 62.322, 493.500 62.638 C 492.675 62.955, 492 63.841, 492 64.607 C 492 65.373, 491.325 66, 490.500 66 C 489.675 66, 489 66.462, 489 67.026 C 489 68.379, 481.799 78, 480.787 78 C 480.354 78, 480 78.450, 480 79 C 480 79.550, 479.212 80.868, 478.250 81.928 C 477.288 82.989, 475.920 84.564, 475.211 85.428 C 473.230 87.843, 472.302 87.372, 469.447 82.500 C 467.997 80.025, 466.403 78, 465.905 78 C 465.407 78, 465 77.325, 465 76.500 C 465 75.675, 464.646 75, 464.213 75 C 463.201 75, 456 65.379, 456 64.026 C 456 63.462, 455.325 63, 454.500 63 C 453.675 63, 453 62.325, 453 61.500 C 453 60.675, 452.575 60, 452.055 60 C 451.535 60, 450.522 58.776, 449.805 57.279 C 448.063 53.647, 444.567 52.033, 438.405 52.015 C 429.549 51.989, 429.936 50.016, 430.238 93.592 L 430.500 131.500 438.500 131.500 L 446.500 131.500 446.769 107.531 C 447.017 85.358, 447.826 78.557, 449.618 83.583 C 449.994 84.637, 451.584 86.712, 453.151 88.194 C 454.718 89.675, 456 91.363, 456 91.944 C 456 92.525, 456.675 93, 457.500 93 C 458.325 93, 459 93.675, 459 94.500 C 459 95.325, 459.372 96, 459.827 96 C 460.281 96, 462.609 98.700, 465 102 C 467.391 105.300, 469.719 108, 470.173 108 C 470.628 108, 471 108.675, 471 109.500 C 471 112.304, 474.752 111.014, 477.543 107.250 C 479.072 105.188, 481.601 102.288, 483.162 100.806 C 484.723 99.325, 486 97.877, 486 97.590 C 486 97.302, 487.575 95.492, 489.500 93.567 C 491.425 91.642, 493.009 89.714, 493.019 89.283 C 493.055 87.826, 499.618 80.952, 500.312 81.645 C 500.690 82.024, 501 93.508, 501 107.167 L 501 132 508.511 132 L 516.023 132 515.761 91.750 L 515.500 51.500 513 51.404 C 511.625 51.352, 508.584 51.490, 506.242 51.712 M 709 51.721 C 707.625 51.968, 706.072 52.581, 705.550 53.085 C 705.028 53.588, 703.583 54, 702.341 54 C 699.310 54, 693.055 57.189, 693.025 58.750 C 693.011 59.438, 692.325 60, 691.500 60 C 690.675 60, 690 60.638, 690 61.417 C 690 62.196, 689.482 63.006, 688.848 63.217 C 687.505 63.665, 685.108 72.097, 685.044 76.601 C 684.958 82.674, 690.237 93, 693.428 93 C 694.158 93, 695.315 93.675, 696 94.500 C 696.685 95.325, 698.427 96.016, 699.872 96.035 C 701.318 96.055, 703.625 96.714, 705 97.500 C 706.375 98.286, 709.300 98.948, 711.500 98.971 C 713.700 98.994, 716.789 99.685, 718.364 100.506 C 719.940 101.328, 722.495 102, 724.043 102 C 725.591 102, 727.532 102.675, 728.357 103.500 C 729.182 104.325, 730.339 105, 730.929 105 C 732.759 105, 732.177 112.823, 730.200 114.800 C 729.210 115.790, 725.807 117.416, 722.638 118.413 C 717.265 120.103, 716.593 120.116, 712.655 118.612 C 710.333 117.726, 707.661 117, 706.717 117 C 705.772 117, 705 116.325, 705 115.500 C 705 114.675, 704.374 114, 703.608 114 C 702.843 114, 701.924 112.834, 701.567 111.409 C 701.074 109.448, 700.501 108.993, 699.208 109.538 C 698.269 109.933, 696.375 110.483, 695 110.759 C 693.625 111.035, 691.825 111.809, 691 112.479 C 690.175 113.148, 688.701 113.980, 687.725 114.326 C 686.355 114.813, 686.105 115.588, 686.628 117.728 C 687.841 122.694, 691.391 126.199, 698 128.957 C 699.375 129.531, 701.281 130.451, 702.236 131 C 703.191 131.550, 709.991 132, 717.346 132 C 730.382 132, 730.867 131.922, 736.609 128.889 C 742.782 125.628, 746.903 121.636, 746.964 118.857 C 746.984 117.953, 747.675 116.955, 748.500 116.638 C 750.878 115.726, 750.526 104.071, 747.972 99.171 C 745.755 94.917, 740.784 90, 738.700 90 C 737.975 90, 736.509 89.339, 735.441 88.532 C 734.374 87.724, 731.925 87.033, 730 86.996 C 728.075 86.959, 725.375 86.286, 724 85.500 C 722.625 84.714, 719.674 84.055, 717.441 84.035 C 715.209 84.016, 712.509 83.339, 711.441 82.532 C 710.374 81.724, 708.557 81.049, 707.405 81.032 C 704.304 80.985, 702 77.836, 702 73.647 C 702 70.664, 702.464 69.774, 704.403 69.037 C 705.724 68.534, 707.101 67.646, 707.462 67.062 C 708.517 65.355, 721.524 65.722, 723 67.500 C 723.685 68.325, 724.827 69, 725.539 69 C 726.251 69, 727.658 70.097, 728.667 71.438 C 730.419 73.768, 730.700 73.820, 735 72.623 C 742.914 70.419, 745.196 68.915, 744.547 66.331 C 743.797 63.345, 738.327 57.938, 733.953 55.860 C 724.942 51.580, 717.067 50.274, 709 51.721 M 293.500 53.183 C 287.446 54.745, 276.044 60.334, 276.021 61.750 C 276.009 62.438, 275.550 63, 275 63 C 273.759 63, 270 66.679, 270 67.893 C 270 68.384, 269.325 69.045, 268.500 69.362 C 267.675 69.678, 267 70.796, 267 71.846 C 267 72.896, 266.325 74.315, 265.500 75 C 264.675 75.685, 264 77.053, 264 78.042 C 264 79.030, 263.280 82.649, 262.400 86.084 C 261.075 91.254, 261.003 93.204, 261.979 97.415 C 262.627 100.212, 263.398 104.221, 263.691 106.324 C 263.984 108.428, 264.849 110.388, 265.612 110.681 C 266.375 110.974, 267 112.011, 267 112.985 C 267 113.958, 267.675 115.315, 268.500 116 C 269.325 116.685, 270 117.865, 270 118.622 C 270 119.380, 270.675 120, 271.500 120 C 272.325 120, 273 120.675, 273 121.500 C 273 122.325, 273.675 123, 274.500 123 C 275.325 123, 276 123.461, 276 124.025 C 276 124.588, 277.012 125.487, 278.250 126.022 C 279.488 126.557, 281.175 127.370, 282 127.829 C 289.104 131.778, 290.246 132, 303.459 132 C 314.058 132, 317.008 131.696, 318 130.500 C 318.685 129.675, 320.267 129, 321.515 129 C 322.764 129, 324.045 128.325, 324.362 127.500 C 324.678 126.675, 325.526 126, 326.246 126 C 326.965 126, 329.032 124.650, 330.839 123 C 332.645 121.350, 334.546 120, 335.062 120 C 337.216 120, 335.702 117.132, 331.216 112.712 C 328.584 110.121, 326.062 108, 325.610 108 C 325.158 108, 323.083 109.350, 321 111 C 318.917 112.650, 316.770 114, 316.229 114 C 315.688 114, 314.685 114.675, 314 115.500 C 312.212 117.654, 293.797 117.654, 291.643 115.500 C 290.818 114.675, 289.856 114, 289.505 114 C 288.087 114, 282 108.672, 282 107.431 C 282 106.699, 281.230 105.669, 280.289 105.142 C 278.842 104.332, 278.573 102.511, 278.543 93.342 C 278.510 83.337, 278.700 82.234, 281.003 79.059 C 285.185 73.296, 286.396 72, 287.600 72 C 288.235 72, 289.276 71.372, 289.913 70.605 C 292.999 66.887, 313.089 66.924, 315.300 70.652 C 315.740 71.393, 316.886 72, 317.847 72 C 318.808 72, 320.698 73.331, 322.047 74.958 C 323.396 76.584, 324.816 77.934, 325.203 77.958 C 326.219 78.019, 336 68.863, 336 67.851 C 336 66.669, 332.218 63, 331 63 C 330.450 63, 329.991 62.438, 329.979 61.750 C 329.954 60.227, 317.844 54.357, 313 53.520 C 306.055 52.320, 297.421 52.170, 293.500 53.183 M 371.500 53.167 C 366.262 54.496, 354.909 60.154, 354.279 61.750 C 354.008 62.438, 353.159 63, 352.393 63 C 351.627 63, 351 63.675, 351 64.500 C 351 65.325, 350.539 66, 349.975 66 C 349.412 66, 348.504 67.013, 347.959 68.250 C 347.413 69.487, 345.849 72.483, 344.483 74.907 C 343.117 77.331, 342 80.449, 342 81.836 C 342 83.223, 341.472 85.819, 340.826 87.605 C 339.480 91.326, 341.118 103.512, 343.588 108.154 C 344.365 109.614, 345 111.527, 345 112.404 C 345 113.282, 345.437 114, 345.970 114 C 346.504 114, 347.966 115.813, 349.220 118.029 C 350.516 120.319, 353.334 123.142, 355.750 124.571 C 358.087 125.953, 360 127.515, 360 128.042 C 360 128.569, 360.814 129, 361.809 129 C 362.804 129, 364.491 129.661, 365.559 130.468 C 368.406 132.621, 393.217 132.648, 395 130.500 C 395.685 129.675, 397.329 129, 398.654 129 C 399.979 129, 401.322 128.325, 401.638 127.500 C 401.955 126.675, 402.637 126, 403.155 126 C 405.132 126, 415.204 114.728, 416.557 111 C 416.857 110.175, 417.754 108.226, 418.551 106.669 C 420.592 102.681, 420.530 82.285, 418.468 79.559 C 417.661 78.491, 417 76.565, 417 75.277 C 417 73.990, 416.325 72.678, 415.500 72.362 C 414.675 72.045, 413.996 71.272, 413.991 70.643 C 413.977 69.004, 401.381 57, 399.674 57 C 398.888 57, 397.724 56.372, 397.087 55.605 C 394.968 53.052, 378.236 51.457, 371.500 53.167 M 529.677 53.250 C 528.114 54.396, 527.994 57.694, 528.236 93 L 528.500 131.500 535.718 131.793 L 542.936 132.086 543.218 120.293 L 543.500 108.500 562.146 108.228 C 577.136 108.010, 581.032 107.667, 582.018 106.478 C 582.693 105.665, 583.977 104.992, 584.872 104.983 C 587.727 104.952, 591.441 100.010, 595.549 90.772 C 597.563 86.243, 597.334 69.945, 595.247 69.249 C 594.561 69.020, 594 67.732, 594 66.385 C 594 65.039, 593.325 63.678, 592.500 63.362 C 591.675 63.045, 591 62.159, 591 61.393 C 591 60.627, 590.325 60, 589.500 60 C 588.675 60, 588 59.539, 588 58.975 C 588 58.412, 586.987 57.513, 585.750 56.978 C 584.513 56.443, 582.825 55.607, 582 55.120 C 578.197 52.876, 569.543 52, 551.177 52 C 536.917 52, 530.906 52.350, 529.677 53.250 M 625.750 53.080 C 624.788 53.641, 624 54.704, 624 55.443 C 624 56.182, 623.325 57.045, 622.500 57.362 C 621.675 57.678, 620.986 58.964, 620.968 60.219 C 620.951 61.473, 620.276 63.374, 619.468 64.441 C 618.661 65.509, 618 67.141, 618 68.069 C 618 68.996, 617.325 70.315, 616.500 71 C 615.675 71.685, 615 73.260, 615 74.500 C 615 75.740, 614.325 77.315, 613.500 78 C 612.675 78.685, 612 80.260, 612 81.500 C 612 82.740, 611.325 84.315, 610.500 85 C 609.675 85.685, 609 87.004, 609 87.931 C 609 88.859, 608.339 90.491, 607.532 91.559 C 606.724 92.626, 606.049 94.232, 606.032 95.128 C 606.014 96.023, 605.325 97.315, 604.500 98 C 603.675 98.685, 603 100.260, 603 101.500 C 603 102.740, 602.325 104.315, 601.500 105 C 600.675 105.685, 600 107.007, 600 107.939 C 600 108.871, 598.650 112.274, 597 115.500 C 595.350 118.726, 594 122.198, 594 123.214 C 594 124.231, 593.325 125.322, 592.500 125.638 C 591.645 125.966, 591 127.458, 591 129.107 L 591 132 599.845 132 C 609.343 132, 612 130.752, 612 126.294 C 612 125.167, 612.675 123.685, 613.500 123 C 614.325 122.315, 615 121.058, 615 120.205 C 615 119.353, 615.788 116.944, 616.750 114.853 L 618.500 111.052 634.500 111.041 L 650.500 111.030 653.750 117.842 C 655.538 121.588, 657 125.420, 657 126.358 C 657 127.296, 657.675 128.322, 658.500 128.638 C 659.325 128.955, 660 129.841, 660 130.607 C 660 131.704, 662.111 132, 669.941 132 C 679.938 132, 682.241 131.274, 679.489 128.991 C 678.670 128.311, 678 126.733, 678 125.485 C 678 124.236, 677.325 122.955, 676.500 122.638 C 675.675 122.322, 675 120.972, 675 119.638 C 675 118.305, 674.325 116.955, 673.500 116.638 C 672.675 116.322, 672 114.972, 672 113.638 C 672 112.305, 671.325 110.955, 670.500 110.638 C 669.675 110.322, 669 108.972, 669 107.638 C 669 106.305, 668.325 104.955, 667.500 104.638 C 666.675 104.322, 666 102.979, 666 101.654 C 666 100.329, 665.325 98.685, 664.500 98 C 663.675 97.315, 663 95.965, 663 95 C 663 94.035, 662.325 92.685, 661.500 92 C 660.675 91.315, 660 89.965, 660 89 C 660 88.035, 659.325 86.685, 658.500 86 C 657.675 85.315, 657 83.965, 657 83 C 657 82.035, 656.325 80.685, 655.500 80 C 654.675 79.315, 654 77.965, 654 77 C 654 76.035, 653.325 74.685, 652.500 74 C 651.675 73.315, 651 72.171, 651 71.457 C 651 69.803, 644.161 56.066, 642.184 53.750 C 641.035 52.404, 639.167 52.007, 634.095 52.030 C 630.468 52.047, 626.712 52.519, 625.750 53.080 M 780 52.958 C 779.175 53.514, 776.868 53.976, 774.872 53.985 C 772.877 53.993, 770.685 54.675, 770 55.500 C 769.315 56.325, 767.910 57, 766.878 57 C 765.845 57, 765 57.675, 765 58.500 C 765 59.325, 764.325 60, 763.500 60 C 762.675 60, 762 60.627, 762 61.393 C 762 62.159, 761.325 63.045, 760.500 63.362 C 759.675 63.678, 758.986 64.964, 758.968 66.219 C 758.951 67.473, 758.276 69.374, 757.468 70.441 C 755.575 72.945, 755.594 79.699, 757.506 83.364 C 758.328 84.940, 759 86.866, 759 87.646 C 759 88.425, 759.675 89.322, 760.500 89.638 C 761.325 89.955, 762.011 90.728, 762.025 91.357 C 762.056 92.805, 768.369 95.990, 771.291 96.032 C 772.506 96.049, 774.374 96.724, 775.441 97.532 C 776.509 98.339, 778.886 99, 780.723 99 C 782.561 99, 785.680 99.675, 787.654 100.500 C 789.629 101.325, 792.738 102, 794.563 102 C 796.388 102, 798.177 102.478, 798.538 103.062 C 798.899 103.646, 800.276 104.534, 801.597 105.037 C 803.507 105.763, 804 106.674, 804 109.475 C 804 118.156, 790.301 122.871, 780 117.736 C 777.525 116.502, 775.056 114.482, 774.513 113.246 C 773.722 111.446, 772.730 111.006, 769.513 111.032 C 767.306 111.049, 764.626 111.724, 763.559 112.532 C 762.491 113.339, 760.830 114, 759.868 114 C 758.905 114, 757.902 114.349, 757.638 114.776 C 756.817 116.105, 759.421 123, 760.745 123 C 761.435 123, 762 123.675, 762 124.500 C 762 125.325, 762.627 126, 763.393 126 C 764.159 126, 765.045 126.675, 765.362 127.500 C 765.678 128.325, 766.796 129, 767.846 129 C 768.896 129, 770.272 129.623, 770.905 130.385 C 773.772 133.841, 803.230 133.838, 806.098 130.382 C 806.729 129.622, 808.037 129, 809.005 129 C 811.253 129, 819 121.306, 819 119.073 C 819 118.143, 819.661 116.509, 820.468 115.441 C 821.305 114.335, 821.936 111.348, 821.936 108.500 C 821.936 105.652, 821.305 102.665, 820.468 101.559 C 819.661 100.491, 819 99.029, 819 98.309 C 819 96.830, 815.470 93, 814.107 93 C 813.616 93, 812.955 92.325, 812.638 91.500 C 812.322 90.675, 811.010 90, 809.723 90 C 808.435 90, 806.509 89.339, 805.441 88.532 C 804.374 87.724, 801.674 87.049, 799.441 87.032 C 797.209 87.014, 794.509 86.339, 793.441 85.532 C 792.374 84.724, 789.768 84.049, 787.651 84.032 C 785.534 84.014, 782.384 83.373, 780.651 82.607 C 778.918 81.841, 776.712 80.955, 775.750 80.638 C 774.390 80.191, 774 78.936, 774 75 C 774 71.053, 774.386 69.817, 775.750 69.390 C 776.712 69.089, 778.694 68.203, 780.154 67.422 C 783.730 65.506, 789.417 65.629, 793.816 67.717 C 797.760 69.589, 801 72.422, 801 74 C 801 75.543, 804.604 75.182, 806 73.500 C 806.685 72.675, 808.427 71.986, 809.872 71.968 C 811.318 71.951, 813.288 71.339, 814.250 70.608 C 816.392 68.982, 816.558 64.151, 814.500 63.362 C 813.675 63.045, 813 62.159, 813 61.393 C 813 60.627, 812.373 60, 811.607 60 C 810.841 60, 809.955 59.325, 809.638 58.500 C 809.322 57.675, 808.204 57, 807.154 57 C 806.104 57, 804.723 56.371, 804.084 55.601 C 802.137 53.255, 782.721 51.124, 780 52.958 M 835.667 52.667 C 835.300 53.033, 835 71.025, 835 92.648 L 835 131.962 837.379 132.559 C 838.688 132.887, 841.050 133.009, 842.629 132.828 L 845.500 132.500 845.780 120.369 L 846.060 108.238 849.155 107.619 C 850.857 107.279, 857.812 107, 864.611 107 C 871.409 107, 879.115 106.492, 881.736 105.871 C 888.387 104.296, 893.975 101.732, 893.989 100.250 C 893.995 99.563, 894.563 98.995, 895.250 98.989 C 895.938 98.982, 897.228 97.295, 898.117 95.239 C 899.006 93.182, 900.469 89.797, 901.367 87.716 C 902.265 85.635, 903 82.067, 903 79.787 C 903 75.252, 899.252 63, 897.865 63 C 897.389 63, 897 62.325, 897 61.500 C 897 60.675, 896.325 60, 895.500 60 C 894.675 60, 893.995 59.438, 893.989 58.750 C 893.975 57.268, 888.387 54.704, 881.736 53.129 C 876.653 51.925, 836.808 51.525, 835.667 52.667 M 1080.712 52.622 C 1080.320 53.013, 1080 71.033, 1080 92.667 L 1080 132 1105.500 132 L 1131 132 1131 127.522 L 1131 123.043 1111.750 122.772 L 1092.500 122.500 1092 87.500 L 1091.500 52.500 1086.462 52.205 C 1083.690 52.043, 1081.103 52.230, 1080.712 52.622 M 1157.500 53.244 C 1152.905 54.384, 1152.303 54.612, 1149.280 56.367 C 1146.660 57.887, 1143 62.323, 1143 63.979 C 1143 64.619, 1142.325 65.818, 1141.500 66.643 C 1139.006 69.137, 1139.470 81.063, 1142.222 85.208 C 1144.672 88.898, 1150.199 92.980, 1152.819 93.035 C 1153.744 93.055, 1155.625 93.714, 1157 94.500 C 1158.375 95.286, 1160.977 95.945, 1162.782 95.965 C 1164.587 95.984, 1167.680 96.675, 1169.654 97.500 C 1171.629 98.325, 1174.539 99, 1176.122 99 C 1177.705 99, 1179 99.406, 1179 99.902 C 1179 100.398, 1180.237 101.237, 1181.750 101.766 C 1185.769 103.171, 1187.709 110.058, 1185.545 115.238 C 1184.697 117.267, 1182.990 119.461, 1181.752 120.114 C 1180.513 120.766, 1179.194 121.771, 1178.819 122.347 C 1178.415 122.968, 1174.037 123.376, 1168.064 123.348 C 1160.151 123.311, 1157.599 122.947, 1156.166 121.651 C 1155.163 120.743, 1153.815 120, 1153.171 120 C 1152.527 120, 1152 119.325, 1152 118.500 C 1152 117.675, 1151.539 117, 1150.975 117 C 1150.412 117, 1149.523 115.875, 1149 114.500 C 1148.100 112.133, 1146 110.995, 1146 112.875 C 1146 113.356, 1144.650 114.020, 1143 114.350 C 1138.385 115.273, 1138.811 119.811, 1144 125 C 1146.200 127.200, 1148.527 129, 1149.171 129 C 1149.815 129, 1151.207 129.782, 1152.263 130.738 C 1155.071 133.279, 1179.968 133.244, 1182.784 130.695 C 1183.815 129.763, 1185.141 129, 1185.732 129 C 1187.304 129, 1194 122.844, 1194 121.399 C 1194 120.721, 1194.550 119.983, 1195.222 119.759 C 1195.996 119.501, 1196.587 116.507, 1196.836 111.580 C 1197.145 105.467, 1196.830 102.977, 1195.364 99.915 C 1194.339 97.775, 1192.938 96.018, 1192.250 96.011 C 1191.563 96.005, 1190.989 95.438, 1190.975 94.750 C 1190.945 93.219, 1184.738 90.013, 1181.709 89.965 C 1180.494 89.945, 1178.375 89.286, 1177 88.500 C 1175.625 87.714, 1172.925 87.039, 1171 87 C 1169.075 86.961, 1166.375 86.286, 1165 85.500 C 1163.625 84.714, 1161.023 84.055, 1159.219 84.035 C 1157.250 84.014, 1155.707 83.400, 1155.362 82.500 C 1155.045 81.675, 1154.269 81, 1153.637 81 C 1153.005 81, 1151.878 79.621, 1151.132 77.936 C 1150.025 75.434, 1150.004 74.058, 1151.018 70.436 C 1151.714 67.951, 1152.862 66, 1153.630 66 C 1154.383 66, 1155 65.384, 1155 64.632 C 1155 63.177, 1160.915 61.747, 1167 61.731 C 1171.499 61.719, 1178.362 63.587, 1178.816 64.947 C 1179.009 65.526, 1179.804 66, 1180.583 66 C 1181.362 66, 1182 66.675, 1182 67.500 C 1182 68.325, 1182.868 69, 1183.929 69 C 1184.989 69, 1186.532 68.325, 1187.357 67.500 C 1188.182 66.675, 1189.339 66, 1189.929 66 C 1191.863 66, 1191.048 61.487, 1188.750 59.473 C 1184.467 55.718, 1182.456 54.739, 1175.736 53.136 C 1170.162 51.807, 1163.130 51.848, 1157.500 53.244 M 936 53.985 C 934.075 54.400, 931.077 55.486, 929.339 56.399 C 925.373 58.480, 918 65.775, 918 67.618 C 918 68.378, 917.559 69, 917.019 69 C 916.480 69, 915.733 70.237, 915.361 71.750 C 914.988 73.263, 914.118 75.400, 913.427 76.500 C 910.520 81.125, 910.945 109.815, 913.935 110.812 C 914.521 111.007, 915 112.268, 915 113.615 C 915 114.961, 915.675 116.322, 916.500 116.638 C 917.325 116.955, 918 117.774, 918 118.458 C 918 120.014, 927.653 129, 929.324 129 C 930.001 129, 931.443 129.621, 932.527 130.379 C 935.957 132.777, 959.847 133.010, 962.188 130.669 C 962.921 129.936, 964.753 129.028, 966.260 128.650 C 967.767 128.271, 969 127.520, 969 126.981 C 969 126.441, 969.675 126, 970.500 126 C 971.325 126, 972 125.325, 972 124.500 C 972 123.675, 972.675 123, 973.500 123 C 974.325 123, 975 122.325, 975 121.500 C 975 120.675, 975.461 120, 976.025 120 C 976.588 120, 977.487 118.988, 978.022 117.750 C 978.557 116.513, 979.380 114.825, 979.851 114 C 983.966 106.789, 984.333 104.944, 984.333 91.500 C 984.333 81.172, 983.960 77.273, 982.730 74.767 C 981.849 72.970, 980.856 70.825, 980.525 70 C 978.237 64.310, 974.363 60.401, 968 57.362 C 967.175 56.968, 966.209 56.211, 965.853 55.680 C 964.337 53.418, 943.988 52.262, 936 53.985 M 1020 53.905 C 1013.451 55.426, 1005.538 60.697, 1002.985 65.240 C 1001.823 67.308, 1000.451 69, 999.936 69 C 999.421 69, 999 69.718, 999 70.596 C 999 71.473, 998.366 73.386, 997.591 74.846 C 995.045 79.641, 993.935 92.613, 995.310 101.500 C 995.991 105.900, 997.100 110.483, 997.774 111.684 C 998.448 112.886, 999 114.367, 999 114.976 C 999 117.656, 1010.472 129, 1013.183 129 C 1013.821 129, 1015.124 129.707, 1016.079 130.571 C 1017.462 131.823, 1020.350 132.143, 1030.257 132.143 C 1042.381 132.143, 1042.858 132.059, 1048.962 128.860 C 1052.407 127.054, 1055.448 124.997, 1055.720 124.288 C 1055.992 123.580, 1056.841 123, 1057.607 123 C 1058.373 123, 1059 122.325, 1059 121.500 C 1059 120.675, 1059.441 120, 1059.981 120 C 1060.520 120, 1061.240 118.893, 1061.579 117.541 C 1061.919 116.189, 1062.827 114.558, 1063.598 113.919 C 1064.369 113.279, 1065.014 111.798, 1065.032 110.628 C 1065.049 109.457, 1065.724 107.626, 1066.532 106.559 C 1067.649 105.081, 1068 101.486, 1068 91.500 C 1068 81.514, 1067.649 77.919, 1066.532 76.441 C 1065.724 75.374, 1065.049 73.735, 1065.032 72.800 C 1064.984 70.254, 1059.345 62.383, 1055.706 59.784 C 1048.306 54.499, 1046.084 53.833, 1034.585 53.456 C 1028.488 53.256, 1021.925 53.458, 1020 53.905 M 941.561 62.901 C 938.845 63.304, 936.445 64.166, 936.228 64.817 C 936.011 65.468, 935.284 66, 934.613 66 C 933.115 66, 927 72.177, 927 73.691 C 927 74.293, 926.378 75.025, 925.618 75.316 C 924.858 75.608, 923.986 77.343, 923.680 79.173 C 923.374 81.003, 922.605 85.066, 921.971 88.202 C 920.823 93.878, 920.919 94.793, 923.884 106.482 C 924.440 108.673, 925.368 110.623, 925.947 110.816 C 926.526 111.009, 927 111.716, 927 112.387 C 927 113.925, 932.501 118.985, 936.654 121.267 C 940.889 123.593, 957.122 123.763, 959 121.500 C 959.685 120.675, 960.677 120, 961.206 120 C 962.750 120, 968.358 113.655, 970.111 109.927 C 978.019 93.101, 974.959 76.264, 962.150 66.119 C 957.923 62.771, 950.381 61.592, 941.561 62.901 M 1024.224 62.695 C 1019.923 63.267, 1008.015 74.552, 1007.968 78.101 C 1007.951 79.420, 1007.276 81.374, 1006.468 82.441 C 1005.441 83.799, 1005 86.971, 1005 93 C 1005 99.029, 1005.441 102.201, 1006.468 103.559 C 1007.276 104.626, 1007.951 106.689, 1007.968 108.143 C 1007.986 109.597, 1008.675 111.045, 1009.500 111.362 C 1010.325 111.678, 1011 112.542, 1011 113.282 C 1011 114.957, 1016.162 120, 1017.876 120 C 1018.573 120, 1019.818 120.675, 1020.643 121.500 C 1022.913 123.770, 1039.157 123.590, 1043.258 121.250 C 1047.188 119.008, 1053 113.304, 1053 111.689 C 1053 111.005, 1053.611 109.557, 1054.357 108.473 C 1056.715 105.045, 1058.527 90.702, 1057.172 86.181 C 1056.528 84.029, 1056 81.138, 1056 79.756 C 1056 78.375, 1055.325 76.685, 1054.500 76 C 1053.675 75.315, 1053 74.348, 1053 73.851 C 1053 72.577, 1046.884 66, 1045.700 66 C 1045.161 66, 1044.221 65.370, 1043.610 64.599 C 1042.431 63.112, 1030.157 61.906, 1024.224 62.695 M 847.200 64.200 C 846.380 65.020, 846 69.867, 846 79.500 C 846 89.133, 846.380 93.980, 847.200 94.800 C 849.074 96.674, 876.903 96.388, 879.441 94.468 C 880.509 93.661, 881.971 93, 882.691 93 C 884.024 93, 888 89.525, 888 88.360 C 888 88.008, 888.707 87.203, 889.571 86.571 C 890.694 85.751, 891.143 83.730, 891.143 79.500 C 891.143 75.270, 890.694 73.249, 889.571 72.429 C 888.707 71.797, 888 70.992, 888 70.640 C 888 69.084, 884.063 66.360, 879.481 64.745 C 873.396 62.601, 849.207 62.193, 847.200 64.200 M 543.438 67.300 C 543.164 68.016, 543.065 74.653, 543.220 82.050 L 543.500 95.500 552.978 95.791 C 559.507 95.991, 563.921 95.602, 567.166 94.541 C 569.756 93.693, 572.466 92.992, 573.188 92.983 C 573.910 92.973, 575.513 91.897, 576.750 90.592 C 578.680 88.556, 579 87.131, 579 80.578 C 579 74.709, 578.652 72.804, 577.500 72.362 C 576.675 72.045, 576 71.159, 576 70.393 C 576 69.627, 575.151 69, 574.114 69 C 573.077 69, 570.940 68.328, 569.364 67.506 C 565.538 65.511, 544.190 65.341, 543.438 67.300 M 372.500 68.672 C 370.850 68.948, 369.140 69.809, 368.700 70.587 C 368.260 71.364, 367.288 72, 366.539 72 C 365.060 72, 360 77.532, 360 79.148 C 360 79.695, 359.325 80.818, 358.500 81.643 C 357.371 82.772, 357 85.566, 357 92.949 C 357 100.446, 357.353 103.048, 358.500 104 C 359.325 104.685, 360 105.625, 360 106.089 C 360 107.189, 366.811 114, 367.911 114 C 368.375 114, 369.315 114.675, 370 115.500 C 370.942 116.636, 373.493 117, 380.500 117 C 387.507 117, 390.058 116.636, 391 115.500 C 391.685 114.675, 392.879 114, 393.654 114 C 394.429 114, 395.322 113.325, 395.638 112.500 C 395.955 111.675, 396.841 111, 397.607 111 C 398.373 111, 399 110.373, 399 109.607 C 399 108.841, 399.675 107.955, 400.500 107.638 C 401.325 107.322, 402 106.117, 402 104.960 C 402 103.803, 402.675 102.182, 403.500 101.357 C 405.543 99.314, 405.566 87.131, 403.532 84.441 C 402.724 83.374, 402.049 81.698, 402.032 80.719 C 402.014 79.739, 401.325 78.678, 400.500 78.362 C 399.675 78.045, 399 77.159, 399 76.393 C 399 75.627, 398.325 75, 397.500 75 C 396.675 75, 396 74.325, 396 73.500 C 396 72.675, 395.487 72, 394.860 72 C 394.233 72, 393.221 71.319, 392.610 70.486 C 391.432 68.880, 378.333 67.698, 372.500 68.672 M 632.145 75.345 C 630.965 76.601, 630 78.301, 630 79.123 C 630 79.945, 629.339 81.491, 628.532 82.559 C 627.724 83.626, 627.049 85.457, 627.032 86.628 C 627.014 87.798, 626.303 89.333, 625.452 90.040 C 624.600 90.747, 624.038 92.264, 624.202 93.412 C 624.464 95.246, 625.290 95.538, 631 95.809 C 634.575 95.979, 638.919 95.855, 640.653 95.532 C 643.700 94.965, 643.771 94.838, 642.770 91.723 C 642.200 89.950, 641.340 87.825, 640.860 87 C 640.380 86.175, 639.730 84.825, 639.415 84 C 639.101 83.175, 638.203 81.306, 637.422 79.846 C 636.640 78.386, 636 76.500, 636 75.655 C 636 73.072, 634.402 72.944, 632.145 75.345 M 320.559 175.532 C 319.491 176.339, 317.804 177, 316.809 177 C 315.814 177, 315 177.627, 315 178.393 C 315 179.159, 314.325 180.045, 313.500 180.362 C 312.675 180.678, 312 182.050, 312 183.410 C 312 184.769, 311.498 186.192, 310.885 186.571 C 309.353 187.518, 310.249 195.647, 312.365 200 C 315.212 205.857, 318.245 207.372, 327.013 207.315 C 334.407 207.268, 334.787 207.146, 338.184 203.749 C 342.775 199.158, 344.138 193.167, 342.234 185.941 C 340.947 181.054, 338.124 177, 336.007 177 C 335.038 177, 333.685 176.325, 333 175.500 C 331.379 173.547, 323.155 173.568, 320.559 175.532 M 448.239 176.001 C 438.198 181.410, 436.395 196.488, 444.869 204.199 C 448.150 207.185, 448.799 207.368, 456.092 207.368 C 463.582 207.368, 463.941 207.258, 467.233 203.934 C 475.713 195.374, 473.738 181.220, 463.324 175.910 C 458.778 173.592, 452.643 173.629, 448.239 176.001 M 646 175.500 C 645.315 176.325, 644.211 177, 643.545 177 C 642.880 177, 641.834 178.634, 641.221 180.630 C 640.306 183.614, 640.409 184.888, 641.804 187.785 C 643.525 191.362, 644.589 191.872, 656.500 194.836 C 658.818 195.412, 659.500 196.141, 659.500 198.041 C 659.500 200.309, 659.084 200.524, 654.141 200.806 C 650.258 201.028, 648.285 200.663, 646.979 199.481 C 644.395 197.143, 639.395 197.855, 639.826 200.500 C 640.005 201.600, 641.006 203.376, 642.050 204.446 C 644.567 207.027, 652.686 209.070, 655.770 207.897 C 657.068 207.404, 659.001 207, 660.065 207 C 663.658 207, 666 203.449, 666 198 C 666 192.543, 664.168 189.752, 659.894 188.698 C 648.400 185.862, 648 185.685, 648 183.439 C 648 182.215, 648.712 180.941, 649.582 180.607 C 652.563 179.463, 656.778 179.978, 657.385 181.561 C 657.814 182.678, 659.052 183.033, 661.742 182.811 C 664.868 182.552, 665.444 182.164, 665.164 180.500 C 664.498 176.527, 660.025 174.075, 653.372 174.036 C 649.111 174.011, 646.866 174.457, 646 175.500 M 792 176.064 C 790.075 177.136, 787.263 179.336, 785.750 180.952 C 783.219 183.657, 783 184.536, 783 191.977 C 783 198.242, 783.338 200.192, 784.500 200.638 C 785.325 200.955, 786.014 201.728, 786.031 202.357 C 786.129 205.905, 796.287 208.501, 804.888 207.176 C 809.784 206.422, 811.850 203.544, 809.652 200.539 C 808.666 199.190, 807.922 199.079, 805.655 199.941 C 804.123 200.523, 800.734 201, 798.123 201 C 794.023 201, 793.078 200.597, 791.188 198.040 C 788.571 194.501, 788.145 187.265, 790.500 186.362 C 791.325 186.045, 792.005 185.272, 792.010 184.643 C 792.016 184.014, 793.742 182.777, 795.847 181.894 C 799.096 180.530, 799.953 180.493, 801.528 181.644 C 802.548 182.390, 804.871 183, 806.691 183 C 809.640 183, 809.997 182.701, 809.974 180.250 C 809.923 174.782, 798.908 172.217, 792 176.064 M 1016.581 176.338 C 1014.426 177.576, 1012.176 179.469, 1011.581 180.544 C 1010.986 181.620, 1009.938 182.860, 1009.250 183.300 C 1007.313 184.539, 1007.653 196.222, 1009.750 200.434 C 1010.712 202.368, 1011.900 203.962, 1012.390 203.975 C 1012.879 203.989, 1013.822 204.743, 1014.486 205.650 C 1015.449 206.967, 1017.469 207.300, 1024.500 207.300 C 1031.531 207.300, 1033.551 206.967, 1034.514 205.650 C 1035.178 204.743, 1036.233 204, 1036.860 204 C 1037.613 204, 1038 201.435, 1038 196.456 L 1038 188.912 1030.830 189.206 C 1026.617 189.379, 1023.505 189.968, 1023.285 190.634 C 1022.658 192.533, 1025.965 195, 1029.138 195 C 1031.815 195, 1032.099 195.292, 1031.816 197.750 C 1031.518 200.341, 1031.182 200.515, 1026 200.759 C 1019.879 201.048, 1019.446 200.849, 1016.250 196.290 C 1013.562 192.456, 1013.537 192.083, 1015.643 187.222 C 1016.761 184.640, 1018.487 182.846, 1021.054 181.598 C 1024.570 179.887, 1025.039 179.873, 1028.065 181.382 C 1032.501 183.595, 1034.659 183.412, 1035.352 180.762 C 1035.784 179.112, 1035.224 177.941, 1033.219 176.298 C 1029.490 173.245, 1021.935 173.263, 1016.581 176.338 M 1104 175.500 C 1103.315 176.325, 1101.995 177, 1101.066 177 C 1098.996 177, 1095.592 181.443, 1094.553 185.500 C 1092.647 192.939, 1094.084 199.262, 1098.744 203.934 C 1102.056 207.256, 1102.422 207.368, 1109.908 207.368 C 1117.237 207.368, 1117.838 207.196, 1121.210 204.127 C 1126.104 199.674, 1127.663 193.941, 1125.915 186.820 C 1124.488 181.008, 1122.542 178.571, 1117.125 175.809 C 1112.777 173.592, 1105.721 173.426, 1104 175.500 M 1143 176.064 C 1141.075 177.136, 1138.263 179.336, 1136.750 180.952 C 1134.219 183.657, 1134 184.536, 1134 191.977 C 1134 198.242, 1134.338 200.192, 1135.500 200.638 C 1136.325 200.955, 1137.014 201.728, 1137.031 202.357 C 1137.049 202.986, 1138.256 204.370, 1139.714 205.434 C 1141.784 206.945, 1144.031 207.368, 1149.974 207.368 C 1156.412 207.368, 1158.076 207.004, 1160.791 204.996 C 1162.556 203.691, 1164 201.864, 1164 200.934 C 1164 200.005, 1164.675 198.685, 1165.500 198 C 1167.453 196.379, 1167.432 188.155, 1165.468 185.559 C 1164.661 184.491, 1164 183.029, 1164 182.309 C 1164 179.027, 1155.530 173.974, 1150.169 174.057 C 1148.151 174.089, 1144.925 174.992, 1143 176.064 M 275.626 176.861 C 274.186 178.452, 273.982 180.736, 274.221 192.611 L 274.500 206.500 278 206.500 L 281.500 206.500 281.801 200.704 L 282.103 194.907 288.301 195.204 L 294.500 195.500 295 201 L 295.500 206.500 299 206.500 L 302.500 206.500 302.776 191.799 C 303.041 177.724, 302.963 177.051, 300.943 175.970 C 297.862 174.321, 295 177.207, 295 181.964 C 295 187.651, 293.316 189.183, 287.467 188.814 L 282.500 188.500 282.210 183 C 282.015 179.323, 281.372 177.086, 280.268 176.250 C 278.089 174.600, 277.616 174.662, 275.626 176.861 M 352.662 176.258 C 351.149 177.364, 350.976 179.255, 351.221 192.008 L 351.500 206.500 354.250 206.816 L 357 207.133 357.014 199.316 C 357.021 195.017, 357.294 190.503, 357.621 189.286 L 358.215 187.071 360.357 189.641 C 361.536 191.054, 363.288 193.063, 364.250 194.105 C 365.212 195.147, 366 196.450, 366 197 C 366 199.285, 370.180 197.848, 371.797 195.006 C 372.733 193.360, 373.837 192.010, 374.250 192.006 C 374.663 192.003, 375 191.325, 375 190.500 C 375 189.675, 375.657 189, 376.461 189 C 377.609 189, 377.984 190.874, 378.211 197.750 L 378.500 206.500 382 206.500 L 385.500 206.500 385.779 192.611 C 386.018 180.736, 385.814 178.452, 384.374 176.861 C 383.448 175.837, 382.174 175, 381.544 175 C 379.456 175, 375.112 177.476, 374.526 179 C 372.711 183.726, 370.736 186, 368.445 186 C 366.938 186, 366 185.424, 366 184.500 C 366 183.675, 365.575 183, 365.057 183 C 364.538 183, 363.338 181.688, 362.391 180.085 C 360.866 177.503, 357.299 175, 355.144 175 C 354.725 175, 353.608 175.566, 352.662 176.258 M 395.626 176.861 C 394.186 178.452, 393.982 180.736, 394.221 192.611 L 394.500 206.500 407 206.500 L 419.500 206.500 419.500 204 C 419.500 201.546, 419.340 201.495, 410.750 201.211 L 402 200.922 402 197.961 L 402 195 409.465 195 C 416.033 195, 417.065 194.747, 418.057 192.893 C 419.704 189.817, 418.356 189.132, 409.999 188.799 L 402.500 188.500 402.500 185.500 L 402.500 182.500 410 182 C 417.951 181.470, 420 180.748, 420 178.476 C 420 175.965, 416.312 175, 406.721 175 C 398.814 175, 397.041 175.297, 395.626 176.861 M 481.706 176.225 C 480.137 177.373, 479.973 179.119, 480.221 192.008 L 480.500 206.500 484 206.500 C 487.432 206.500, 487.511 206.407, 488.045 201.755 C 488.345 199.145, 489.020 196.581, 489.545 196.057 C 490.070 195.534, 493.389 194.969, 496.921 194.803 C 503.439 194.495, 504.722 193.696, 503.021 191 C 502.392 190.003, 499.801 189.332, 495.288 189 C 488.524 188.502, 488.500 188.490, 488.500 185.500 L 488.500 182.500 496 182 L 503.500 181.500 503.500 178.500 L 503.500 175.500 493.485 175.218 C 486.495 175.020, 482.938 175.325, 481.706 176.225 M 524.647 176.838 C 523.093 178.555, 523.104 178.784, 524.821 180.338 C 525.831 181.252, 527.439 182, 528.394 182 C 529.350 182, 531.002 182.466, 532.066 183.035 C 533.805 183.966, 534 185.224, 534 195.535 L 534 207 536.969 207 L 539.938 207 540.219 194.750 L 540.500 182.500 544 182.172 C 545.925 181.991, 548.291 181.131, 549.258 180.260 C 550.899 178.781, 550.906 178.553, 549.353 176.838 C 547.937 175.272, 546.105 175, 537 175 C 527.895 175, 526.063 175.272, 524.647 176.838 M 558.709 175.624 C 558.319 176.014, 558 183.233, 558 191.667 L 558 207 561 207 L 564 207 564 201 L 564 195 571.500 195 L 579 195 579 201 L 579 207 582.025 207 L 585.051 207 584.775 191.250 L 584.500 175.500 582 175.500 C 579.641 175.500, 579.472 175.867, 579 182 L 578.500 188.500 571.500 188.500 L 564.500 188.500 564 182 C 563.570 176.416, 563.212 175.459, 561.459 175.208 C 560.336 175.047, 559.099 175.235, 558.709 175.624 M 595.706 176.225 C 594.137 177.373, 593.973 179.119, 594.221 192.008 L 594.500 206.500 606.250 206.782 L 618 207.063 618 204.074 L 618 201.084 610.250 200.792 C 602.728 200.509, 602.500 200.426, 602.500 198 C 602.500 195.600, 602.800 195.480, 610 195 C 617.296 194.514, 617.509 194.425, 617.816 191.750 L 618.133 189 611.102 189 C 605.006 189, 603.922 188.724, 602.958 186.922 C 600.930 183.133, 602.373 182.111, 610.201 181.795 L 617.500 181.500 617.500 178.500 L 617.500 175.500 607.485 175.218 C 600.495 175.020, 596.938 175.325, 595.706 176.225 M 675.698 175.636 C 675.314 176.019, 675 183.233, 675 191.667 L 675 207 687 207 L 699 207 699 204.039 L 699 201.078 690.250 200.789 C 681.660 200.505, 681.500 200.454, 681.500 198 C 681.500 195.569, 681.733 195.486, 690 195 C 698.388 194.507, 698.504 194.464, 698.816 191.750 C 699.132 189.008, 699.114 189, 692.816 188.986 C 684.777 188.969, 682.308 188.286, 681.686 185.909 C 680.979 183.204, 682.497 182.567, 691 182 L 698.500 181.500 698.500 178.500 L 698.500 175.500 687.448 175.219 C 681.369 175.065, 676.081 175.252, 675.698 175.636 M 708.709 175.624 C 708.319 176.014, 708 183.248, 708 191.699 L 708 207.066 719.250 206.783 L 730.500 206.500 730.500 204 C 730.500 201.560, 730.304 201.493, 722.280 201.210 L 714.059 200.920 713.780 188.210 C 713.517 176.284, 713.374 175.482, 711.459 175.208 C 710.336 175.047, 709.099 175.235, 708.709 175.624 M 739.706 176.225 C 738.137 177.373, 737.973 179.119, 738.221 192.008 L 738.500 206.500 742 206.500 C 745.432 206.500, 745.511 206.407, 746.045 201.755 C 746.345 199.145, 747.020 196.581, 747.545 196.057 C 748.070 195.534, 751.389 194.969, 754.921 194.803 C 761.439 194.495, 762.722 193.696, 761.021 191 C 760.392 190.003, 757.801 189.332, 753.288 189 C 746.524 188.502, 746.500 188.490, 746.500 185.500 L 746.500 182.500 754 182 L 761.500 181.500 761.500 178.500 L 761.500 175.500 751.485 175.218 C 744.495 175.020, 740.938 175.325, 739.706 176.225 M 819.709 175.624 C 819.319 176.014, 819 183.248, 819 191.699 L 819 207.066 830.250 206.783 L 841.500 206.500 841.500 204 C 841.500 201.560, 841.304 201.493, 833.280 201.210 L 825.059 200.920 824.780 188.210 C 824.517 176.284, 824.374 175.482, 822.459 175.208 C 821.336 175.047, 820.099 175.235, 819.709 175.624 M 849.698 175.636 C 849.314 176.019, 849 183.233, 849 191.667 L 849 207 861 207 L 873 207 873 204.039 L 873 201.078 864.250 200.789 C 855.660 200.505, 855.500 200.454, 855.500 198 C 855.500 195.569, 855.733 195.486, 864 195 C 872.388 194.507, 872.504 194.464, 872.816 191.750 C 873.132 189.008, 873.114 189, 866.816 188.986 C 858.777 188.969, 856.308 188.286, 855.686 185.909 C 854.979 183.204, 856.497 182.567, 865 182 L 872.500 181.500 872.500 178.500 L 872.500 175.500 861.448 175.219 C 855.369 175.065, 850.081 175.252, 849.698 175.636 M 893.500 176.131 C 891.626 177.065, 888 183.376, 888 185.705 C 888 186.283, 887.325 187.315, 886.500 188 C 885.675 188.685, 885 190.260, 885 191.500 C 885 192.740, 884.325 194.315, 883.500 195 C 882.675 195.685, 882 197.267, 882 198.515 C 882 199.764, 881.325 201.045, 880.500 201.362 C 879.675 201.678, 879 203.104, 879 204.529 C 879 206.912, 879.302 207.096, 882.743 206.810 C 885.685 206.566, 886.766 205.912, 887.797 203.750 C 889.012 201.203, 889.550 201, 895.090 201 C 901.306 201, 906 202.986, 906 205.615 C 906 207.245, 911.542 207.549, 912.517 205.973 C 912.866 205.408, 912.218 203.015, 911.076 200.657 C 909.934 198.298, 909 195.666, 909 194.807 C 909 193.948, 908.325 192.685, 907.500 192 C 906.675 191.315, 906 189.733, 906 188.485 C 906 187.236, 905.325 185.955, 904.500 185.638 C 903.675 185.322, 903 184.130, 903 182.991 C 903 180.260, 899.044 174.982, 897.062 175.068 C 896.203 175.105, 894.600 175.584, 893.500 176.131 M 921.667 175.667 C 921.300 176.033, 921 183.233, 921 191.667 L 921 207 924 207 L 927 207 927.014 200.250 C 927.021 196.537, 927.307 192.454, 927.650 191.176 C 928.272 188.853, 928.273 188.853, 931.150 192.003 C 932.733 193.737, 934.709 196.470, 935.540 198.077 C 936.371 199.685, 937.490 201, 938.026 201 C 938.562 201, 939 201.450, 939 202 C 939 203.956, 943.150 207.119, 945.311 206.811 C 947.435 206.509, 947.508 206.062, 947.776 191.799 C 948.039 177.862, 947.947 177.042, 946.006 176.003 C 942.739 174.255, 942 175.639, 942 183.500 C 942 190.484, 940.702 193.992, 939.386 190.563 C 939.056 189.704, 938.159 189, 937.393 189 C 936.627 189, 936 188.578, 936 188.062 C 936 187.546, 934.650 185.645, 933 183.839 C 931.350 182.032, 930 180.031, 930 179.392 C 930 176.947, 923.356 173.977, 921.667 175.667 M 957.709 175.624 C 957.319 176.014, 957 183.233, 957 191.667 L 957 207 960.025 207 L 963.051 207 962.775 191.250 C 962.513 176.261, 962.401 175.486, 960.459 175.208 C 959.336 175.047, 958.099 175.235, 957.709 175.624 M 974.597 176.893 C 973.193 178.444, 972.984 180.828, 973.221 192.611 L 973.500 206.500 977 206.500 L 980.500 206.500 980.792 198.750 C 980.953 194.488, 981.351 191, 981.677 191 C 982.315 191, 987 195.841, 987 196.500 C 987 196.718, 988.175 198.158, 989.611 199.698 C 991.047 201.239, 992.611 203.512, 993.086 204.750 C 993.667 206.261, 994.780 207, 996.475 207 L 999 207 999 191.559 C 999 182.561, 998.591 175.865, 998.021 175.513 C 997.482 175.180, 996.132 175.394, 995.021 175.989 C 993.297 176.911, 993 178.071, 993 183.869 C 993 187.607, 992.714 190.952, 992.365 191.301 C 992.016 191.650, 990.399 189.925, 988.771 187.468 C 987.143 185.011, 985.404 183, 984.906 183 C 984.408 183, 984 182.550, 984 182 C 984 180.753, 980.794 177.495, 978.202 176.108 C 976.680 175.294, 975.888 175.466, 974.597 176.893 M 1060.662 176.258 C 1059.149 177.364, 1058.976 179.255, 1059.221 192.008 L 1059.500 206.500 1063 206.500 C 1066.333 206.500, 1066.524 206.310, 1067 202.500 L 1067.500 198.500 1074.500 198 C 1082.125 197.455, 1086 195.258, 1086 191.478 C 1086 190.335, 1086.434 188.966, 1086.963 188.437 C 1087.581 187.819, 1087.489 186.223, 1086.705 183.987 C 1084.998 179.114, 1084.383 178.338, 1080.826 176.563 C 1076.941 174.625, 1063.180 174.416, 1060.662 176.258 M 1175.626 176.861 C 1174.186 178.452, 1173.982 180.736, 1174.221 192.611 L 1174.500 206.500 1185.750 206.783 L 1197 207.066 1197 204.033 L 1197 201 1189.500 201 L 1182 201 1182 189.035 C 1182 178.229, 1181.813 176.970, 1180.066 176.035 C 1177.557 174.692, 1177.595 174.685, 1175.626 176.861 M 321.750 182.583 C 319.041 184.350, 317.960 185.789, 317.855 187.765 C 317.318 197.864, 319.435 201.009, 326.750 200.983 C 333.328 200.959, 336 198.122, 336 191.160 C 336 186.619, 335.667 185.853, 332.750 183.667 C 327.894 180.029, 325.959 179.838, 321.750 182.583 M 452 182.033 C 450.625 183.114, 448.938 184.467, 448.250 185.039 C 446.390 186.586, 446.595 196.907, 448.500 197.638 C 449.325 197.955, 450 198.841, 450 199.607 C 450 200.643, 451.538 201, 456 201 C 460.462 201, 462 200.643, 462 199.607 C 462 198.841, 462.675 197.955, 463.500 197.638 C 464.574 197.226, 464.996 195.564, 464.985 191.781 C 464.967 185.821, 464.747 185.375, 460.290 182.250 C 456.400 179.523, 455.231 179.492, 452 182.033 M 1107.502 181.575 C 1101.922 184.485, 1101 185.918, 1101 191.686 C 1101 195.543, 1101.424 197.225, 1102.500 197.638 C 1103.325 197.955, 1104 198.841, 1104 199.607 C 1104 200.643, 1105.538 201, 1110 201 C 1114.667 201, 1116 200.667, 1116 199.500 C 1116 198.675, 1116.675 198, 1117.500 198 C 1118.661 198, 1118.997 196.701, 1118.985 192.250 C 1118.968 185.797, 1118.780 185.397, 1114.290 182.250 C 1110.486 179.583, 1111.190 179.653, 1107.502 181.575 M 1146.539 181.777 C 1144.910 182.724, 1142.787 184.400, 1141.822 185.500 C 1139.334 188.335, 1139.511 194.420, 1142.188 198.040 C 1144.121 200.654, 1144.978 201, 1149.533 201 C 1157.013 201, 1159.838 197.075, 1158.549 188.476 C 1157.984 184.712, 1157.383 183.880, 1153.919 182.075 C 1149.226 179.629, 1150.164 179.667, 1146.539 181.777 M 1067.398 183.405 C 1067.102 184.177, 1067.003 186.315, 1067.180 188.155 C 1067.488 191.370, 1067.681 191.512, 1072.129 191.800 C 1077.544 192.151, 1080 190.355, 1080 186.045 C 1080 183.974, 1079.407 183.074, 1077.750 182.630 C 1073.598 181.518, 1067.961 181.939, 1067.398 183.405 M 894 188.378 C 894 189.685, 893.330 191.311, 892.511 191.991 C 890.280 193.843, 891.645 195, 896.059 195 C 899.489 195, 899.996 194.708, 899.967 192.750 C 899.930 190.292, 896.830 186, 895.090 186 C 894.490 186, 894 187.070, 894 188.378" stroke="none" fill="black" fill-rule="evenodd"/>
</svg>